<svg xmlns="http://www.w3.org/2000/svg" viewBox="0 0 512 512">
	<style>.a{fill:#1138F7;}.b{fill:#FFF;}</style>
	<circle cx="256" cy="256" r="236.2" class="a"/>
	<path d="M256 512C114.9 512 0 397.2 0 256 0 114.9 114.9 0 256 0c141.2 0 256 114.9 256 256C512 397.2 397.2 512 256 512zM256 39.7C136.7 39.7 39.7 136.7 39.7 256S136.7 472.3 256 472.3 472.3 375.3 472.3 256C472.3 136.7 375.3 39.7 256 39.7z" class="a"/>
	<path d="M256 373.2c-10.9 0-19.8-8.9-19.8-19.8V155.1c0-10.9 8.9-19.8 19.8-19.8 10.9 0 19.8 8.9 19.8 19.8v198.3C275.8 364.3 266.9 373.2 256 373.2z" class="b"/>
	<path d="M355.1 274H156.9c-10.9 0-19.8-8.9-19.8-19.8 0-10.9 8.9-19.8 19.8-19.8h198.3c11 0 19.8 8.9 19.8 19.8C375 265.2 366.1 274 355.1 274z" class="b"/>
</svg>