<svg xmlns="http://www.w3.org/2000/svg" width="80" height="100" viewBox="0 0 120 120" fill="none">
    <style>.a{fill:#B3CDE0;}</style>
    <circle cx="60" cy="60" r="60" fill="#005B96"/>
    <path d="M43.9 75.2L57.7 75.1 87.8 45.3C88.9 44.1 89.6 42.6 89.6 40.9 89.6 39.2 88.9 37.7 87.8 36.5L82.8 31.5C80.4 29.2 76.3 29.2 74 31.5L43.9 61.3V75.2ZM78.4 35.9L83.4 40.9 78.4 45.8 73.4 40.9 78.4 35.9ZM50.1 63.9L69 45.3 73.9 50.2 55.1 68.9 50.1 68.9V63.9Z" class="a"/>
    <path d="M37.6 87.6H81.4C84.8 87.6 87.6 84.8 87.6 81.4V54.3L81.4 60.5V81.4H47.5C47.4 81.4 47.3 81.4 47.2 81.4 47.1 81.4 47 81.4 46.9 81.4H37.6V37.6H59L65.3 31.4H37.6C34.2 31.4 31.4 34.2 31.4 37.6V81.4C31.4 84.8 34.2 87.6 37.6 87.6Z" class="a"/>
</svg>